<?xml version="1.0" standalone="no"?>
<!DOCTYPE svg PUBLIC "-//W3C//DTD SVG 20010904//EN"
 "http://www.w3.org/TR/2001/REC-SVG-20010904/DTD/svg10.dtd">
<svg version="1.0" xmlns="http://www.w3.org/2000/svg"
 width="615.000000pt" height="615.000000pt" viewBox="0 0 615.000000 615.000000"
 preserveAspectRatio="xMidYMid meet">
<metadata>
Created by potrace 1.11, written by Peter Selinger 2001-2013
</metadata>
<g transform="translate(0.000000,615.000000) scale(0.100000,-0.100000)"
fill="#000000" stroke="none">
<path d="M927 5690 c-101 -94 -140 -205 -123 -344 4 -31 10 -56 14 -56 4 0 36
56 72 125 35 68 65 123 66 122 2 -1 -8 -60 -22 -131 -14 -70 -23 -135 -21
-144 3 -13 16 -5 54 34 63 64 87 129 87 234 0 86 -31 220 -51 220 -7 0 -41
-27 -76 -60z"/>
<path d="M5263 5693 c-13 -41 -18 -90 -18 -163 1 -122 18 -171 88 -239 48 -48
61 -51 53 -13 -23 111 -46 245 -43 248 2 2 32 -50 67 -117 72 -140 84 -141 84
-4 1 95 -21 162 -74 232 -34 45 -112 113 -130 113 -5 0 -17 -26 -27 -57z"/>
<path d="M2977 5262 l-167 -167 168 -168 167 -167 168 168 167 167 -168 168
-167 167 -168 -168z"/>
<path d="M436 5237 c-3 -12 -6 -55 -6 -94 0 -85 22 -153 71 -214 32 -41 108
-103 116 -95 3 2 -12 55 -31 117 -19 62 -34 115 -32 117 2 2 37 -45 78 -105
l73 -108 3 69 c2 58 -1 77 -23 122 -30 60 -117 145 -192 186 l-51 28 -6 -23z"/>
<path d="M1163 5235 c-117 -54 -197 -167 -209 -296 l-6 -64 48 55 c27 30 68
75 92 100 l42 45 -19 -45 c-10 -25 -35 -80 -54 -122 -20 -43 -33 -78 -29 -78
4 0 30 13 57 29 56 32 95 81 121 151 18 49 32 250 18 250 -5 0 -33 -11 -61
-25z"/>
<path d="M5067 5218 c-8 -56 9 -178 32 -231 10 -23 31 -57 46 -75 27 -33 112
-88 121 -80 2 3 -18 56 -46 118 -28 62 -49 114 -47 116 2 2 39 -37 83 -88 l79
-91 3 42 c6 84 -54 206 -130 262 -34 25 -119 69 -133 69 -1 0 -5 -19 -8 -42z"/>
<path d="M5783 5220 c-137 -79 -226 -228 -199 -336 7 -25 12 -20 81 81 41 59
77 110 80 113 5 5 -5 -30 -49 -170 -13 -43 -21 -78 -17 -78 11 0 88 65 115 97
35 41 63 106 71 166 9 59 -2 157 -18 157 -7 0 -35 -14 -64 -30z"/>
<path d="M852 5080 c0 -14 2 -19 5 -12 2 6 2 18 0 25 -3 6 -5 1 -5 -13z"/>
<path d="M5441 4883 c-5 -885 -265 -1595 -799 -2178 -244 -267 -598 -527 -896
-660 l-87 -39 -49 49 c-28 27 -50 56 -50 65 0 8 27 94 60 190 l60 175 -4 -205
-5 -205 44 49 c147 165 175 383 77 598 l-29 63 -79 -81 c-88 -92 -135 -162
-171 -262 -22 -59 -24 -79 -21 -170 l5 -104 -176 176 c-97 97 -179 176 -182
176 -4 0 -78 -72 -165 -160 -87 -88 -160 -160 -163 -160 -3 0 -6 44 -7 98 0
76 -5 109 -23 154 -32 83 -109 193 -185 267 l-65 65 -30 -65 c-41 -90 -64
-209 -55 -284 14 -125 75 -259 149 -325 l28 -25 -6 199 c-3 109 -4 196 -2 194
2 -2 31 -82 64 -178 l60 -174 -58 -58 -58 -58 -79 36 c-167 75 -404 225 -574
361 -113 90 -315 287 -406 395 -366 436 -587 936 -674 1523 -21 141 -39 405
-43 605 l-2 125 -13 -95 c-21 -149 -26 -389 -13 -555 31 -384 115 -693 281
-1031 272 -553 697 -989 1320 -1354 69 -40 127 -75 129 -77 7 -5 -52 -63 -64
-63 -6 0 -24 14 -41 31 -75 79 -190 119 -343 120 -92 0 -244 -21 -260 -36 -16
-16 92 -161 161 -216 64 -51 134 -85 208 -101 30 -6 57 -13 59 -15 3 -2 -13
-21 -34 -43 l-40 -40 470 -470 470 -470 475 475 474 474 -34 36 c-18 19 -32
36 -29 38 2 2 29 9 60 16 129 27 250 114 329 234 22 34 40 67 40 74 0 20 -137
44 -250 44 -164 -1 -259 -34 -355 -122 l-42 -38 -34 36 c-21 22 -29 37 -22 40
20 7 284 166 353 213 202 135 392 294 566 472 435 445 692 960 785 1570 26
174 35 473 20 654 -19 223 -29 232 -30 27z m-2264 -2903 c-22 -24 -43 -61 -53
-96 -18 -64 -12 -114 26 -216 l21 -58 94 0 95 0 2 168 c3 165 3 167 26 170
l22 3 0 -386 0 -386 -22 3 c-23 3 -23 5 -26 191 l-2 187 -84 0 -84 0 15 -57
c21 -80 13 -164 -20 -237 -26 -56 -104 -165 -119 -166 -4 0 14 44 40 97 43 89
47 104 47 168 -1 38 -9 98 -19 133 l-19 62 -98 0 -99 0 0 -191 0 -190 -22 3
-23 3 0 380 0 380 23 3 22 3 0 -170 0 -171 90 0 c83 0 90 1 82 18 -17 32 -35
124 -34 177 1 74 44 154 107 195 47 31 51 24 12 -20z m-897 -120 c69 -18 129
-37 135 -42 6 -5 -3 -20 -22 -40 l-32 -31 -115 72 c-104 65 -139 91 -103 79 6
-3 68 -20 137 -38z m1874 30 c-14 -14 -216 -140 -224 -140 -3 0 -21 15 -39 34
l-32 33 143 41 c159 45 167 47 152 32z"/>
<path d="M1134 4616 c-116 -78 -185 -205 -183 -336 2 -105 8 -104 88 24 41 64
76 115 78 112 2 -2 -12 -63 -32 -136 -20 -73 -35 -134 -32 -136 2 -2 22 9 45
26 100 72 147 213 123 371 -13 86 -20 109 -29 109 -4 0 -30 -15 -58 -34z"/>
<path d="M5097 4643 c-3 -5 -11 -36 -17 -71 -17 -86 -8 -215 19 -278 24 -53
80 -117 123 -140 l26 -14 -10 38 c-5 20 -23 84 -39 141 -16 57 -27 106 -25
108 2 2 38 -51 79 -118 86 -139 92 -139 85 -1 -5 105 -37 178 -108 250 -49 49
-125 98 -133 85z"/>
<path d="M3456 4496 c-132 -49 -210 -277 -162 -478 59 -251 285 -307 388 -96
76 155 59 408 -35 514 -54 62 -124 84 -191 60z m111 -44 c33 -21 81 -126 93
-202 27 -176 -2 -332 -75 -400 -20 -19 -37 -25 -72 -25 -39 0 -49 5 -83 41
-95 102 -118 388 -43 526 45 83 111 105 180 60z"/>
<path d="M2448 4473 c-8 -16 -19 -46 -22 -68 -7 -38 -105 -448 -127 -527 -7
-28 -16 -39 -34 -44 -44 -11 -27 -22 40 -26 44 -2 65 1 65 8 0 7 -9 14 -21 17
-18 5 -20 10 -14 51 4 25 15 76 24 113 l16 68 70 0 70 0 21 -105 c22 -106 19
-130 -12 -130 -8 0 -14 -4 -14 -10 0 -6 58 -10 155 -10 97 0 155 4 155 10 0 6
-9 10 -20 10 -10 0 -24 9 -30 19 -11 21 -11 194 -1 381 l6 115 19 -60 c40
-135 115 -393 126 -437 13 -51 24 -55 34 -11 19 81 152 491 158 487 12 -8 10
-452 -2 -475 -6 -10 -17 -19 -25 -19 -8 0 -15 -4 -15 -9 0 -5 34 -11 75 -13
55 -2 75 0 75 10 0 6 -7 12 -15 12 -8 0 -18 8 -24 18 -13 26 -25 551 -12 584
5 14 19 29 30 33 38 12 22 25 -29 25 -46 0 -50 -2 -56 -27 -12 -58 -147 -498
-154 -507 -11 -11 -141 402 -156 496 -7 38 -7 38 -54 38 -59 0 -68 -9 -30 -31
29 -18 30 -22 30 -86 0 -100 -20 -495 -25 -514 -12 -37 -74 -41 -102 -8 -12
15 -34 110 -104 447 -24 111 -46 202 -49 202 -3 0 -13 -12 -22 -27z m32 -235
c11 -60 18 -112 15 -118 -3 -5 -29 -10 -57 -10 l-51 0 7 39 c15 99 49 223 56
210 4 -8 18 -62 30 -121z"/>
<path d="M1575 4480 c-4 -6 3 -18 14 -28 21 -17 21 -23 19 -312 l-3 -295 -22
-10 c-13 -5 -23 -13 -23 -16 0 -13 215 -21 255 -10 60 16 110 63 146 137 30
60 33 77 37 179 4 96 1 124 -17 185 -26 85 -84 152 -147 169 -50 14 -251 14
-259 1z m245 -39 c84 -44 126 -162 117 -331 -5 -110 -21 -169 -58 -219 -46
-62 -140 -81 -184 -36 l-25 24 0 285 c0 218 3 286 13 289 29 12 105 6 137 -12z"/>
<path d="M2060 4480 c0 -5 6 -10 14 -10 8 0 22 -10 30 -22 24 -34 24 -579 0
-602 -8 -9 -22 -16 -31 -16 -8 0 -13 -5 -11 -11 5 -14 161 -15 166 -1 1 5 -8
12 -21 16 -14 3 -27 16 -31 28 -3 13 -6 145 -6 293 0 229 2 274 16 293 8 12
22 22 30 22 8 0 14 5 14 10 0 6 -35 10 -85 10 -50 0 -85 -4 -85 -10z"/>
<path d="M3780 4482 c0 -5 11 -14 24 -20 38 -17 46 -67 45 -282 -2 -274 -8
-332 -36 -345 -39 -17 -25 -25 42 -25 36 0 68 0 72 -1 4 0 9 4 11 10 2 6 -5
11 -16 11 -43 0 -47 19 -50 279 -2 226 -1 244 14 226 8 -11 80 -139 160 -285
79 -146 144 -260 145 -255 0 6 0 116 -1 247 -1 130 2 275 6 323 6 79 9 87 30
96 46 17 25 29 -51 29 -78 0 -96 -11 -47 -28 26 -9 30 -16 35 -63 4 -30 7
-139 6 -244 0 -181 -1 -189 -17 -166 -28 38 -150 257 -214 384 l-60 117 -49 0
c-27 0 -49 -4 -49 -8z"/>
<path d="M4315 4481 c-3 -6 3 -19 14 -29 21 -17 21 -23 19 -312 l-3 -295 -22
-10 c-13 -5 -23 -13 -23 -16 0 -4 49 -10 108 -14 137 -9 179 2 237 59 62 62
87 135 93 267 6 164 -32 268 -120 326 -39 26 -49 28 -169 31 -86 3 -129 0
-134 -7z m245 -40 c84 -44 126 -162 117 -331 -6 -112 -16 -154 -55 -212 -44
-68 -141 -90 -187 -43 l-25 24 0 285 c0 218 3 286 13 289 29 12 105 6 137 -12z"/>
<path d="M400 4442 c0 -92 56 -218 123 -279 41 -36 159 -97 177 -91 6 2 -13
41 -43 88 -29 47 -63 103 -77 125 -27 46 -37 52 114 -79 55 -47 101 -84 103
-82 11 10 -30 131 -56 170 -47 68 -134 124 -246 159 -96 29 -95 30 -95 -11z"/>
<path d="M5824 4461 c-184 -52 -303 -162 -321 -299 l-6 -47 29 26 c16 14 66
58 112 98 45 41 84 72 87 70 2 -2 -30 -57 -70 -122 -83 -131 -82 -139 22 -87
73 36 146 111 178 183 27 59 51 176 38 187 -4 4 -36 0 -69 -9z"/>
<path d="M1299 4032 c-92 -85 -149 -207 -149 -320 0 -51 29 -186 38 -177 4 3
35 72 69 153 34 81 62 140 63 131 0 -9 -7 -80 -16 -158 -8 -78 -13 -148 -11
-154 8 -22 96 83 118 142 30 79 24 234 -14 340 -14 41 -30 78 -35 83 -5 5 -31
-11 -63 -40z"/>
<path d="M4914 4043 c-60 -143 -70 -312 -23 -414 23 -49 106 -145 116 -135 2
2 -3 72 -12 156 -9 83 -15 154 -12 156 2 3 32 -59 65 -138 l60 -143 17 59 c27
93 18 223 -23 306 -28 60 -141 190 -163 190 -5 0 -16 -17 -25 -37z"/>
<path d="M520 3734 c0 -8 9 -43 21 -77 39 -117 109 -201 209 -252 51 -26 163
-59 180 -53 5 2 -38 56 -96 121 -57 65 -104 121 -104 123 0 6 -10 12 151 -88
70 -43 129 -78 132 -78 3 0 -1 21 -10 48 -53 156 -194 244 -425 265 -47 5 -58
3 -58 -9z"/>
<path d="M5680 3739 c-184 -22 -312 -98 -371 -224 -27 -56 -35 -85 -25 -85 3
0 66 38 142 85 75 47 138 84 140 83 1 -2 -45 -57 -102 -122 -58 -65 -103 -120
-101 -122 10 -10 118 19 175 47 109 53 193 160 227 287 12 47 11 64 -4 61 -3
-1 -40 -5 -81 -10z"/>
<path d="M2515 3621 c-54 -24 -108 -86 -136 -157 -20 -51 -23 -76 -23 -189 -1
-119 2 -135 25 -185 52 -110 120 -160 220 -160 76 0 120 24 136 75 6 22 12 56
12 75 0 34 -1 33 -30 -28 -20 -41 -40 -67 -59 -77 -86 -45 -181 14 -226 140
-14 38 -18 80 -18 180 0 141 12 189 60 252 74 97 204 80 236 -30 6 -23 15 -46
20 -51 11 -14 10 97 -2 128 -17 46 -140 61 -215 27z"/>
<path d="M2790 3621 c0 -6 12 -16 28 -23 l27 -13 0 -300 0 -300 -27 -13 c-54
-26 -29 -32 126 -32 l154 0 11 50 c6 28 11 63 10 78 0 23 -4 19 -24 -26 -27
-59 -57 -77 -119 -69 -72 10 -71 6 -74 305 -3 282 1 322 38 322 11 0 20 7 20
15 0 12 -16 15 -85 15 -47 0 -85 -4 -85 -9z"/>
<path d="M3140 3620 c0 -6 8 -14 18 -17 9 -4 20 -11 24 -17 4 -6 8 -99 8 -206
0 -219 11 -312 40 -371 54 -105 205 -107 258 -2 32 64 42 136 42 317 0 223 6
265 36 277 45 16 25 29 -44 29 -38 0 -72 -3 -75 -7 -4 -3 6 -14 21 -24 27 -16
29 -22 35 -100 16 -204 3 -388 -32 -458 -27 -52 -47 -66 -97 -66 -55 0 -89 31
-110 99 -18 60 -31 346 -20 449 7 60 11 69 32 77 47 18 25 30 -56 30 -48 0
-80 -4 -80 -10z"/>
<path d="M3653 3623 c-27 -5 -30 -21 -5 -30 9 -4 20 -11 24 -17 4 -6 8 -140 8
-298 l0 -288 -25 -16 c-14 -9 -25 -20 -25 -25 0 -5 44 -9 97 -9 120 0 167 19
203 83 20 34 24 56 24 117 0 85 -17 127 -64 162 -30 21 -30 22 -11 42 32 36
41 63 41 129 0 77 -27 125 -80 144 -34 11 -141 15 -187 6z m170 -43 c35 -28
51 -81 44 -148 -7 -70 -35 -101 -92 -105 l-40 -2 -3 124 c-2 82 1 128 9 137
16 20 52 17 82 -6z m27 -318 c67 -67 66 -228 -1 -276 -32 -22 -72 -20 -95 5
-15 17 -19 41 -22 144 -3 68 -2 131 1 140 4 10 20 15 47 15 32 0 48 -6 70 -28z"/>
<path d="M1573 3533 c-98 -127 -134 -266 -102 -403 15 -66 61 -164 69 -148 4
7 22 85 41 173 38 181 39 180 54 -45 4 -63 11 -124 15 -135 6 -17 11 -14 39
25 65 90 78 214 37 345 -23 73 -102 225 -117 225 -4 0 -20 -17 -36 -37z"/>
<path d="M4653 3524 c-83 -129 -123 -272 -104 -376 11 -63 37 -125 70 -168 11
-14 22 -22 25 -20 2 3 10 78 17 168 7 89 15 162 19 162 3 0 22 -73 42 -162
l35 -163 31 63 c42 88 57 183 42 270 -14 82 -57 175 -108 232 l-38 43 -31 -49z"/>
<path d="M1950 3058 c-58 -95 -84 -248 -61 -358 15 -68 61 -163 106 -215 l34
-40 1 189 c0 104 2 187 5 184 3 -3 28 -83 55 -178 27 -95 51 -175 54 -177 9
-10 44 74 56 134 17 84 2 166 -49 268 -34 68 -145 213 -172 223 -5 2 -18 -11
-29 -30z"/>
<path d="M4258 3030 c-118 -134 -174 -267 -166 -393 5 -73 44 -186 58 -170 4
4 30 84 56 178 l49 169 6 -89 c4 -50 7 -130 8 -179 l1 -90 29 29 c46 43 99
160 112 245 10 63 9 88 -4 154 -17 81 -69 206 -86 206 -5 0 -34 -27 -63 -60z"/>
<path d="M852 3073 c-42 -4 -44 -5 -37 -31 11 -46 72 -137 125 -186 69 -65
157 -104 264 -118 57 -8 90 -8 96 -2 7 7 -32 43 -116 108 -69 54 -124 100
-121 102 2 2 73 -22 158 -55 85 -33 155 -58 157 -56 8 8 -43 90 -79 126 -93
93 -242 130 -447 112z"/>
<path d="M5245 3074 c-111 -17 -202 -61 -259 -124 -37 -41 -69 -96 -64 -109 2
-5 72 18 157 51 84 32 155 57 157 55 2 -2 -53 -48 -122 -101 -148 -115 -150
-126 -17 -108 115 15 199 56 274 133 58 58 126 176 111 191 -10 10 -192 19
-237 12z"/>
<path d="M1423 2446 c-93 -18 -173 -45 -173 -58 0 -21 83 -119 130 -153 113
-83 236 -114 371 -94 44 6 81 14 83 18 3 4 -66 42 -152 85 -86 44 -152 80
-147 82 6 2 87 -9 180 -25 94 -16 171 -28 173 -26 7 6 -65 84 -106 112 -86 62
-225 84 -359 59z"/>
<path d="M4666 2449 c-74 -12 -169 -63 -215 -116 -47 -52 -51 -66 -18 -58 50
11 315 55 328 54 8 0 -57 -36 -145 -80 -94 -48 -155 -84 -150 -89 5 -5 42 -14
82 -20 138 -19 281 20 381 106 45 39 121 129 121 144 0 13 -121 47 -205 59
-80 12 -110 12 -179 0z"/>
<path d="M2365 536 c-41 -18 -72 -53 -58 -67 7 -7 19 -2 39 16 38 35 92 32
114 -7 13 -25 13 -30 -3 -61 -10 -18 -51 -62 -92 -97 -41 -36 -75 -71 -75 -77
0 -10 28 -13 110 -13 91 0 110 3 110 15 0 12 -16 15 -81 15 l-81 0 70 65 c75
70 99 115 83 156 -20 53 -83 79 -136 55z"/>
<path d="M2885 536 c-112 -50 -126 -233 -22 -296 117 -72 239 76 181 220 -27
68 -100 103 -159 76z m95 -46 c91 -91 18 -276 -88 -226 -100 48 -73 246 33
246 22 0 43 -8 55 -20z"/>
<path d="M3803 543 c-34 -7 -73 -49 -73 -79 0 -15 10 -38 22 -51 l21 -23 -26
-24 c-50 -46 -28 -116 42 -137 47 -14 100 -5 135 22 36 29 37 89 0 118 l-25
20 21 21 c29 29 24 86 -10 111 -28 19 -73 29 -107 22z m92 -53 c33 -36 -5 -90
-63 -90 -52 0 -85 75 -44 99 29 18 87 13 107 -9z m3 -140 c46 -43 11 -95 -63
-95 -51 0 -75 18 -75 56 0 55 92 81 138 39z"/>
<path d="M3347 528 c-37 -13 -29 -34 11 -30 l32 3 0 -135 c0 -114 2 -136 15
-136 13 0 15 24 15 155 0 154 0 155 -22 154 -13 0 -36 -5 -51 -11z"/>
</g>
</svg>
